<?xml version="1.0" encoding="utf-8"?>
<!-- Generator: Adobe Illustrator 13.0.1, SVG Export Plug-In . SVG Version: 6.00 Build 14948)  -->
<!DOCTYPE svg PUBLIC "-//W3C//DTD SVG 1.1//EN" "http://www.w3.org/Graphics/SVG/1.1/DTD/svg11.dtd">
<svg version="1.1" id="Layer_1" xmlns="http://www.w3.org/2000/svg" xmlns:xlink="http://www.w3.org/1999/xlink" x="0px" y="0px"
         width="670px" height="573.407px" viewBox="0 0 670 573.407" enable-background="new 0 0 670 573.407"
         xml:space="preserve">
<g>
<path fill-rule="evenodd" clip-rule="evenodd" d="M651.496,342.546c0,41.204,0.078,82.411-0.026,123.618
        c-0.108,43.982-32.296,68.508-74.729,56.821c-11.948-3.292-23.721-7.27-35.453-11.283c-9.168-3.142-14.418-9.519-11.001-19.383
        c3.245-9.364,11.344-10.58,19.789-8.173c11.928,3.396,23.583,7.739,35.516,11.1c20.629,5.813,35.822-4.943,35.916-26.234
        c0.374-84.626,0.405-169.249,0.316-253.874c-0.018-17.54-6.044-24.951-25.377-30.836c-62.297-18.968-124.724-37.516-187.089-56.271
        c-56.423-16.968-112.825-34.01-169.25-50.983c-6.785-2.041-13.55-4.275-20.474-5.695c-21.183-4.345-33.852,5.565-33.911,27.172
        c-0.139,50.508,0.239,101.017,0.276,151.528c0.005,7.95,0.023,16.014-1.232,23.824c-1.399,8.71-6.63,14.83-16.364,13.953
        c-9.368-0.846-12.487-7.906-12.566-16.041c-0.275-27.911-0.158-55.824-0.157-83.736c0.003-29.242-0.06-58.487,0.095-87.729
        c0.231-43.732,33.139-68.646,75.16-56.107c117.588,35.086,235.045,70.609,352.557,105.959c9.331,2.809,18.761,5.334,27.98,8.468
        c25.806,8.778,39.69,27.533,39.894,54.97c0.321,42.974,0.088,85.954,0.088,128.932C651.465,342.546,651.48,342.546,651.496,342.546
        z"/><path fill-rule="evenodd" clip-rule="evenodd" d="M494.465,398.89c0,44.314-0.055,88.63,0.028,132.939
        c0.028,14.462-3.162,27.257-16.264,35.694c-18.144,11.684-42.038,4.489-49.518-15.757c-2.69-7.283-3.786-15.55-3.807-23.373
        c-0.226-86.409-0.147-172.824,0.039-259.237c0.019-7.47,0.529-15.16,2.345-22.361c3.765-14.923,17.305-24.951,32.189-25.067
        c15.06-0.117,28.368,9.529,32.569,24.532c1.646,5.872,2.165,12.22,2.188,18.357c0.174,44.756,0.094,89.515,0.094,134.271
        C494.374,398.89,494.418,398.89,494.465,398.89z"/><path fill-rule="evenodd" clip-rule="evenodd" d="M398.487,400.239c-0.007,34.106,0.122,68.212-0.051,102.315
        c-0.112,22.347-13.058,36.186-33.462,36.365c-19.741,0.174-33.604-12.845-33.767-34.589c-0.53-70.86-0.502-141.729-0.026-212.591
        c0.138-20.436,15.915-34.914,34.691-34.238c18.747,0.672,32.339,14.843,32.527,35.108
        C398.734,328.486,398.494,364.363,398.487,400.239z"/><path fill-rule="evenodd" clip-rule="evenodd" d="M302.844,398.56c0,22.152,0.085,44.302-0.023,66.454
        c-0.109,22.293-13.155,36.495-33.29,36.5c-19.774,0.008-33.54-14.592-33.644-36.57c-0.213-44.743-0.182-89.491,0-134.234
        c0.087-21.26,14.589-36.851,33.571-36.817c19.271,0.034,33.079,15.192,33.238,36.887c0.165,22.591,0.038,45.187,0.038,67.78
        C302.77,398.56,302.807,398.56,302.844,398.56z"/><path fill-rule="evenodd" clip-rule="evenodd" d="M139.836,396.849c0-11.956-0.43-23.934,0.096-35.866
        c0.882-20.025,14.738-34.326,33.062-34.89c18.411-0.569,33.76,12.737,34.699,32.955c1.211,26.06,1.267,52.258,0.046,78.312
        c-0.945,20.146-14.837,31.99-33.794,32.021c-17.59,0.031-31.995-13.683-33.855-32.696c-0.646-6.587-0.38-13.27-0.443-19.911
        s-0.013-13.286-0.013-19.925C139.701,396.849,139.768,396.849,139.836,396.849z"/> 
</g>
</svg>
